inDegrees=yes
name=ik_lifting_orientations
DataType=double
version=3
OpenSimVersion=4.5-2024-01-10-34fd6af
endheader
time	pelvis_tilt	pelvis_list	pelvis_rotation	pelvis_tx	pelvis_ty	pelvis_tz	hip_flexion_r	hip_adduction_r	hip_rotation_r	knee_angle_r	knee_angle_r_beta	ankle_angle_r	subtalar_angle_r	mtp_angle_r	hip_flexion_l	hip_adduction_l	hip_rotation_l	knee_angle_l	knee_angle_l_beta	ankle_angle_l	subtalar_angle_l	mtp_angle_l	lumbar_extension	lumbar_bending	lumbar_rotation	arm_flex_r	arm_add_r	arm_rot_r	elbow_flex_r	pro_sup_r	wrist_flex_r	wrist_dev_r	arm_flex_l	arm_add_l	arm_rot_l	elbow_flex_l	pro_sup_l	wrist_flex_l	wrist_dev_l
0.84	0.1866838551712618	-6.558255201454361	-87.38241335987205	0	0.9399999998679526	0	24.05863858085463	-8.820093781800988	0	33.35007051994468	0.5820685363453318	-4.724069648940148	0	0	24.05863858085463	-8.820093781800988	0	33.35007051994468	0.5820685363453318	-4.724069648940148	0	0	-1.75845037311561	-1.949738114739686	14.13992863549833	-36.78294808976571	-41.98356264819386	-31.4864014253455	176.8428773838794	44.6945854480154	0	0	0	-4.520455460949494	0	45.41048391571474	44.6945854480154	0	0
0.85	-0.3174114666514042	-5.968379277821589	-86.67178354718386	0	0.9399999998679526	0	24.07530619068846	-8.822938330698799	0	33.37102190918959	0.5824342070705225	-4.724930839239098	0	0	24.07530619068846	-8.822938330698799	0	33.37102190918959	0.5824342070705225	-4.724930839239098	0	0	-1.177566184407757	-1.501006608649595	13.35423069127339	-36.01802548949443	-43.27652882806833	-31.17160200556135	179.1099701819781	44.66453684224374	0	0	0	-4.524739087684541	0	45.4404247043764	44.66453684224374	0	0
0.86	-0.2455187271119602	-4.918241563252766	-85.50413897093618	0	0.9399999998679526	0	24.24254092368304	-8.845572123671797	0	33.59854612678799	0.5864052537956386	-4.731344749352735	0	0	24.24254092368304	-8.845572123671797	0	33.59854612678799	0.5864052537956386	-4.731344749352735	0	0	-0.7139719854135317	-1.086535218746979	11.4727621282288	-29.27651231373754	-46.28053364352836	-26.04665497178232	179.9044502590016	44.36460189897156	0	0	0	-4.573455673871287	0	45.73944135551557	44.36460189897156	0	0
0.87	-0.5713309342314468	-3.740124582475393	-86.60206189460754	0	0.9399999998679526	0	24.32612288250825	-8.857207087131124	0	33.7100412625142	0.5883512110140189	-4.734666149074117	0	0	24.32612288250825	-8.857207087131124	0	33.7100412625142	0.5883512110140189	-4.734666149074117	0	0	0.5153092352163274	-0.858373930545574	12.55582703293356	-24.04011423468322	-46.07642234342605	-20.58040865190684	179.9829294239388	44.2145578860796	0	0	0	-4.597404014040385	0	45.88901518510482	44.2145578860796	0	0
0.88	-0.5791630502106396	-3.735840186935013	-86.59224681418235	0	0.9399999998679526	0	24.34322690776036	-8.860272025710245	0	33.72949619032617	0.5886907635600755	-4.735594073479052	0	0	24.34322690776036	-8.860272025710245	0	33.72949619032617	0.5886907635600755	-4.735594073479052	0	0	-0.6826544391896561	-0.9241593902591049	12.61797265951233	-22.05919834853667	-46.191351997067	-20.01574595073514	179.9885471989694	44.18362289929137	0	0	0	-4.601509017958278	0	45.91983203033085	44.18362289929137	0	0
0.89	-0.5205514997368011	-2.69800517281374	-85.42660374709961	0	0.9399999998679526	0	24.78632624486649	-8.925272303192592	0	34.25168281920174	0.597804639543844	-4.753975906265671	0	0	24.78632624486649	-8.925272303192592	0	34.25168281920174	0.597804639543844	-4.753975906265671	0	0	-0.1928152656005717	-0.5053444129366975	10.7522398510391	-19.44333661986219	-45.34935259018896	-17.35748051068991	179.990511872085	43.39410429331147	0	0	0	-4.718827397504547	0	46.70674831580342	43.39410429331147	0	0
0.9	-0.5119005874741792	-2.701534088077881	-85.43170522087374	0	0.9399999998679526	0	24.84703140150388	-8.933416679723027	0	34.33209542447389	0.5992081042659496	-4.756266500486297	0	0	24.84703140150388	-8.933416679723027	0	34.33209542447389	0.5992081042659496	-4.756266500486297	0	0	-0.2010355816718646	-0.4984826144786283	10.75607536052624	-16.07271383016814	-46.20311065987633	-14.71499296865944	179.989189375569	43.28516606118341	0	0	0	-4.736412764174606	0	46.81535109038122	43.28516606118341	0	0
0.91	-1.063396914931117	-2.128910497389545	-84.69902192506416	0	0.9399999998679526	0	24.91688960593172	-8.942943269421896	0	34.42359505729141	0.6008050741229811	-4.758956035865955	0	0	24.91688960593172	-8.942943269421896	0	34.42359505729141	0.6008050741229811	-4.758956035865955	0	0	0.4106765546136353	-0.01671865647374592	10.00237897688492	-13.04612415494201	-47.28794131388948	-12.67312303712925	179.9869360952498	43.15979220055941	0	0	0	-4.756447709326873	0	46.94033413326392	43.15979220055941	0	0
